<?xml version="1.0" encoding="UTF-8" standalone="no"?>
<svg
   version="1.1"
   id="TT"
   x="0px"
   y="0px"
   width="298.745"
   height="253.19"
   viewBox="0 0 298.745 253.19"
   xml:space="preserve"
   sodipodi:docname="TapTap_Black.svg"
   inkscape:version="1.1 (c4e8f9ed74, 2021-05-24)"
   xmlns:inkscape="http://www.inkscape.org/namespaces/inkscape"
   xmlns:sodipodi="http://sodipodi.sourceforge.net/DTD/sodipodi-0.dtd"
   xmlns="http://www.w3.org/2000/svg"
   xmlns:svg="http://www.w3.org/2000/svg"
   xmlns:rdf="http://www.w3.org/1999/02/22-rdf-syntax-ns#"
   xmlns:cc="http://creativecommons.org/ns#"
   xmlns:dc="http://purl.org/dc/elements/1.1/"
   xmlns:ns="&amp;#38;ns_sfw;"><defs
   id="defs1372" /><sodipodi:namedview
   pagecolor="#ffffff"
   bordercolor="#666666"
   borderopacity="1"
   objecttolerance="10"
   gridtolerance="10"
   guidetolerance="10"
   inkscape:pageopacity="0"
   inkscape:pageshadow="2"
   inkscape:window-width="1452"
   inkscape:window-height="988"
   id="namedview1370"
   showgrid="false"
   inkscape:zoom="1.3267714"
   inkscape:cx="-87.430284"
   inkscape:cy="150.36501"
   inkscape:window-x="437"
   inkscape:window-y="61"
   inkscape:window-maximized="0"
   inkscape:current-layer="TT"
   inkscape:pagecheckerboard="0"
   fit-margin-top="0"
   fit-margin-left="0"
   fit-margin-right="0"
   fit-margin-bottom="0" />
<metadata
   id="metadata1359">
	<ns:sfw>
		<ns:slices />
		<ns:sliceSourceBounds
   height="253.19"
   width="298.745"
   x="332.611"
   y="-585.656"
   bottomLeftOrigin="true" />
	</ns:sfw>
<rdf:RDF><cc:Work
     rdf:about=""><dc:format>image/svg+xml</dc:format><dc:type
       rdf:resource="http://purl.org/dc/dcmitype/StillImage" /></cc:Work></rdf:RDF></metadata>



<g
   id="g1950"
   transform="translate(-77.399,-98.993)"><polygon
     points="77.399,179.732 77.399,131.546 226.75,217.697 376.144,131.545 376.144,179.448 324.352,209.104 324.352,327.677 282.873,351.652 282.695,233.28 226.77,265.585 170.852,233.343 170.852,352.183 129.164,327.726 129.164,209.06 "
     id="polygon1361" /><polygon
     points="226.771,158.335 329.818,98.993 371.119,122.844 226.771,206.195 82.445,122.87 124.059,99.203 "
     id="polygon1363" /><polygon
     points="221.758,327.645 180.419,351.516 180.254,250.201 221.743,274.154 "
     id="polygon1365" /><polygon
     points="272.831,250.201 272.666,351.516 231.327,327.645 231.341,274.154 "
     id="polygon1367" /></g>
</svg>
