<?xml version="1.0" encoding="UTF-8" standalone="no"?>
<svg
   xmlns:ns="&amp;ns_sfw;"
   xmlns:dc="http://purl.org/dc/elements/1.1/"
   xmlns:cc="http://creativecommons.org/ns#"
   xmlns:rdf="http://www.w3.org/1999/02/22-rdf-syntax-ns#"
   xmlns:svg="http://www.w3.org/2000/svg"
   xmlns="http://www.w3.org/2000/svg"
   xmlns:sodipodi="http://sodipodi.sourceforge.net/DTD/sodipodi-0.dtd"
   xmlns:inkscape="http://www.inkscape.org/namespaces/inkscape"
   version="1.1"
   id="TT"
   x="0px"
   y="0px"
   width="453.543px"
   height="453.543px"
   viewBox="0 0 453.543 453.543"
   style="enable-background:new 0 0 453.543 453.543;"
   xml:space="preserve"
   sodipodi:docname="TapTap.svg"
   inkscape:version="1.0.2 (e86c870879, 2021-01-15, custom)"><defs
   id="defs1372" /><sodipodi:namedview
   pagecolor="#ffffff"
   bordercolor="#666666"
   borderopacity="1"
   objecttolerance="10"
   gridtolerance="10"
   guidetolerance="10"
   inkscape:pageopacity="0"
   inkscape:pageshadow="2"
   inkscape:window-width="1920"
   inkscape:window-height="1044"
   id="namedview1370"
   showgrid="false"
   inkscape:zoom="1.3267714"
   inkscape:cx="98.924189"
   inkscape:cy="248.73676"
   inkscape:window-x="0"
   inkscape:window-y="36"
   inkscape:window-maximized="0"
   inkscape:current-layer="TT" />
<metadata
   id="metadata1359">
	<ns:sfw>
		<ns:slices />
		<ns:sliceSourceBounds
   height="253.19"
   width="298.745"
   x="332.611"
   y="-585.656"
   bottomLeftOrigin="true" />
	</ns:sfw>
<rdf:RDF><cc:Work
     rdf:about=""><dc:format>image/svg+xml</dc:format><dc:type
       rdf:resource="http://purl.org/dc/dcmitype/StillImage" /></cc:Work></rdf:RDF></metadata>



<g
   id="g1950"><polygon
     points="129.164,327.726 129.164,209.06 77.399,179.732 77.399,131.546 226.75,217.697 376.144,131.545 376.144,179.448   324.352,209.104 324.352,327.677 282.873,351.652 282.695,233.28 226.77,265.585 170.852,233.343 170.852,352.183 "
     id="polygon1361" /><polygon
     points="82.445,122.87 124.059,99.203 226.771,158.335 329.818,98.993 371.119,122.844 226.771,206.195 "
     id="polygon1363" /><polygon
     points="180.254,250.201 221.743,274.154 221.758,327.645 180.419,351.516 "
     id="polygon1365" /><polygon
     points="231.327,327.645 231.341,274.154 272.831,250.201 272.666,351.516 "
     id="polygon1367" /></g>
</svg>
